<?xml version="1.0" encoding="UTF-8"?>
<svg id="_Слой_2" data-name="Слой 2" xmlns="http://www.w3.org/2000/svg" xmlns:xlink="http://www.w3.org/1999/xlink" viewBox="0 0 170.15 236.26">
  <defs>
    <style>
      .cls-1 {
        fill: url(#_Безымянный_градиент_26-4);
      }

      .cls-2 {
        fill: url(#_Безымянный_градиент_26);
      }

      .cls-3 {
        fill: url(#_Безымянный_градиент_26-10);
      }

      .cls-4 {
        fill: url(#_Безымянный_градиент_26-2);
      }

      .cls-5 {
        fill: url(#_Безымянный_градиент_26-3);
      }

      .cls-6 {
        fill: url(#_Безымянный_градиент_26-6);
      }

      .cls-7 {
        fill: url(#_Безымянный_градиент_26-8);
      }

      .cls-8 {
        fill: url(#_Безымянный_градиент_26-9);
      }

      .cls-9 {
        fill: url(#_Безымянный_градиент_26-5);
      }

      .cls-10 {
        fill: url(#_Безымянный_градиент_26-7);
      }
    </style>
    <radialGradient id="_Безымянный_градиент_26" data-name="Безымянный градиент 26" cx="49.72" cy="11.75" fx="49.72" fy="11.75" r="153.38" gradientUnits="userSpaceOnUse">
      <stop offset="0" stop-color="#f8d756"/>
      <stop offset="1" stop-color="#9c6d27"/>
    </radialGradient>
    <radialGradient id="_Безымянный_градиент_26-2" data-name="Безымянный градиент 26" cx="-5.61" cy="-59.71" fx="-5.61" fy="-59.71" r="388.76" xlink:href="#_Безымянный_градиент_26"/>
    <radialGradient id="_Безымянный_градиент_26-3" data-name="Безымянный градиент 26" cx="-5.61" cy="-59.71" fx="-5.61" fy="-59.71" r="388.76" xlink:href="#_Безымянный_градиент_26"/>
    <radialGradient id="_Безымянный_градиент_26-4" data-name="Безымянный градиент 26" cx="-5.61" cy="-59.71" fx="-5.61" fy="-59.71" r="388.76" xlink:href="#_Безымянный_градиент_26"/>
    <radialGradient id="_Безымянный_градиент_26-5" data-name="Безымянный градиент 26" cx="-5.61" cy="-59.71" fx="-5.61" fy="-59.71" r="388.76" gradientTransform="translate(27.61 -5.45) rotate(48.85)" xlink:href="#_Безымянный_градиент_26"/>
    <radialGradient id="_Безымянный_градиент_26-6" data-name="Безымянный градиент 26" cx="-5.61" cy="-59.71" fx="-5.61" fy="-59.71" r="388.76" gradientTransform="translate(52.49 4.83) rotate(41.12)" xlink:href="#_Безымянный_градиент_26"/>
    <radialGradient id="_Безымянный_градиент_26-7" data-name="Безымянный градиент 26" cx="-5.61" cy="-59.71" fx="-5.61" fy="-59.71" r="388.76" xlink:href="#_Безымянный_градиент_26"/>
    <radialGradient id="_Безымянный_градиент_26-8" data-name="Безымянный градиент 26" cx="-5.61" cy="-59.71" fx="-5.61" fy="-59.71" r="388.76" gradientTransform="translate(48.09 -72.77) rotate(41.15)" xlink:href="#_Безымянный_градиент_26"/>
    <radialGradient id="_Безымянный_градиент_26-9" data-name="Безымянный градиент 26" cx="-5.61" cy="-59.71" fx="-5.61" fy="-59.71" r="388.76" gradientTransform="translate(95.94 -66.36) rotate(48.88)" xlink:href="#_Безымянный_градиент_26"/>
    <radialGradient id="_Безымянный_градиент_26-10" data-name="Безымянный градиент 26" cx="-5.61" cy="-59.71" fx="-5.61" fy="-59.71" r="388.76" xlink:href="#_Безымянный_градиент_26"/>
  </defs>
  <g id="_Слой_1-2" data-name="Слой 1">
    <g>
      <path class="cls-2" d="m85.46,11.12h-20.79c-9.37,0-16.96,7.59-16.96,16.96v49.04c0,9.41,7.62,17.03,17.03,17.03h20.72c9.41,0,17.03-7.62,17.03-17.03V28.15c0-9.41-7.62-17.03-17.03-17.03Zm12.15,64.75c0,7.7-6.26,13.95-13.95,13.95h-17.12c-7.7,0-13.95-6.26-13.95-13.95V29.34c0-7.7,6.26-13.88,13.95-13.88h17.12c7.7,0,13.95,6.19,13.95,13.88v46.54Z"/>
      <path class="cls-4" d="m164.24,6.89c-4.22-4.61-10.43-6.89-16.68-6.89H58.57c-6.25,0-12.46,2.28-16.68,6.89-3.25,3.55-5.91,8.84-5.91,16.62v193.57s.89,19.18,22.55,19.18h89.09c21.65,0,22.55-19.18,22.55-19.18V23.51c0-7.78-2.66-13.06-5.91-16.62Zm-1.37,206.12s2.29,16.37-17.02,16.37H60.7c-19.25,0-17.44-15.76-17.44-15.76V24.81c0-18.83,14.43-17.87,14.43-17.87h90.91s14.27-.66,14.27,18.17v187.89Z"/>
      <g>
        <path class="cls-5" d="m75.09,48.34c-5.46,0-9.89-4.44-9.89-9.89s4.44-9.89,9.89-9.89,9.89,4.44,9.89,9.89-4.44,9.89-9.89,9.89Zm0-18.07c-4.51,0-8.18,3.67-8.18,8.18s3.67,8.17,8.18,8.17,8.18-3.67,8.18-8.17-3.67-8.18-8.18-8.18Z"/>
        <path class="cls-1" d="m75.09,76.72c-5.46,0-9.89-4.44-9.89-9.89s4.44-9.89,9.89-9.89,9.89,4.44,9.89,9.89-4.44,9.89-9.89,9.89Zm0-18.07c-4.51,0-8.18,3.67-8.18,8.18s3.67,8.18,8.18,8.18,8.18-3.67,8.18-8.18-3.67-8.18-8.18-8.18Z"/>
      </g>
      <rect class="cls-9" x="18.09" y="11.54" width="3.44" height="32.27" transform="translate(-14.06 24.38) rotate(-48.85)"/>
      <rect class="cls-6" x="3.68" y="70.67" width="32.27" height="3.44" transform="translate(-42.72 30.89) rotate(-41.12)"/>
      <rect class="cls-10" y="48.21" width="32.27" height="3.44"/>
      <rect class="cls-7" x="104.85" y="25.95" width="32.27" height="3.44" transform="translate(11.67 86.44) rotate(-41.15)"/>
      <rect class="cls-8" x="119.26" y="56.25" width="3.44" height="32.27" transform="translate(-13.11 115.92) rotate(-48.88)"/>
      <rect class="cls-3" x="108.52" y="48.21" width="32.27" height="3.44"/>
    </g>
  </g>
</svg>