<?xml version="1.0" encoding="UTF-8"?>
<svg id="_Слой_2" data-name="Слой 2" xmlns="http://www.w3.org/2000/svg" xmlns:xlink="http://www.w3.org/1999/xlink" viewBox="0 0 129.67 107.49">
  <defs>
    <style>
      .cls-1 {
        fill: #f8d756;
      }

      .cls-2 {
        fill: url(#_Безымянный_градиент_2);
      }

      .cls-3 {
        fill: url(#_Безымянный_градиент_2-3);
      }

      .cls-4 {
        fill: url(#_Безымянный_градиент_2-2);
      }
    </style>
    <linearGradient id="_Безымянный_градиент_2" data-name="Безымянный градиент 2" x1=".76" y1="26.5" x2="188.13" y2="59.95" gradientUnits="userSpaceOnUse">
      <stop offset="0" stop-color="#f8d756"/>
      <stop offset="1" stop-color="#9c6d27"/>
    </linearGradient>
    <linearGradient id="_Безымянный_градиент_2-2" data-name="Безымянный градиент 2" x1="-3.33" y1="30.21" x2="184.04" y2="63.66" xlink:href="#_Безымянный_градиент_2"/>
    <linearGradient id="_Безымянный_градиент_2-3" data-name="Безымянный градиент 2" x1="-.1" y1="31.32" x2="187.27" y2="64.77" xlink:href="#_Безымянный_градиент_2"/>
  </defs>
  <g id="_Слой_1-2" data-name="Слой 1">
    <g>
      <path class="cls-2" d="m57.96,50.19c-1.58-.59-2.92-1.52-4.02-2.79-1.1-1.28-1.65-2.93-1.65-4.97,0-2.14.71-3.93,2.14-5.36s3.16-2.47,5.2-3.14c-1.02-.41-1.89-1.01-2.6-1.8-.71-.79-1.07-1.75-1.07-2.87,0-1.58.66-2.85,1.99-3.83,1.32-.97,2.83-1.45,4.51-1.45,1.32,0,2.5.22,3.52.65,1.02.43,1.84.96,2.45,1.57l.53,2.83h-.23c-.41-1.27-1.19-2.4-2.33-3.37-1.15-.97-2.46-1.45-3.94-1.45-1.38,0-2.54.47-3.48,1.42s-1.42,2.13-1.42,3.56c0,.82.31,1.61.92,2.37.56.77,1.56,1.4,2.98,1.91l.53.23.38.15-1.07.38c-4.64,2.09-6.96,4.92-6.96,8.49,0,2.55.82,4.53,2.45,5.93,1.63,1.41,3.57,2.1,5.82,2.1s4.21-.69,5.89-2.06c1.68-1.38,2.52-3.29,2.52-5.74,0-1.12-.27-2.14-.8-3.06-.54-.92-1.14-1.5-1.8-1.76-.56.2-1.22.5-1.99.88-.77.38-1.28.7-1.53.96-.41.36-.61.74-.61,1.15l.08,1.07c0,.56-.21.84-.61.84-.15,0-.31-.09-.46-.27-.15-.18-.23-.42-.23-.73,0-.25.02-.43.08-.54.31-1.07,1.38-2.01,3.21-2.83l2.3-1.07c1.68-.61,3.06-1.3,4.13-2.06.46-.25.87-.62,1.22-1.11.36-.48.54-.96.54-1.42,0-.36-.05-.61-.15-.77-.05-.1-.14-.22-.27-.34-.13-.13-.22-.27-.27-.42l-.15-.31c0-.15.05-.33.15-.53.1-.1.23-.15.38-.15.25,0,.51.2.76.61.15.36.23.71.23,1.07,0,.82-.31,1.61-.92,2.37-.46.56-.96,1.03-1.49,1.42-.54.38-1.31.83-2.34,1.34.1.05.35.32.73.8.38.49.74,1.12,1.07,1.91.33.79.5,1.67.5,2.64,0,1.68-.53,3.16-1.61,4.44-1.07,1.28-2.4,2.26-3.98,2.95-1.58.69-3.09,1.03-4.51,1.03-1.58,0-3.16-.29-4.74-.88Z"/>
      <g>
        <path class="cls-1" d="m6.12,93.56c.21-.34.31-.78.31-1.32v-10.19c0-.52-.09-.93-.25-1.24s-.38-.47-.64-.47v-.08h8.87l.31,1.44h-.19c-.21-.49-.65-.81-1.34-.95-.69-.14-1.65-.21-2.9-.21h-2.65v6.53h3.42c.47,0,.86-.09,1.19-.27.32-.18.49-.37.49-.55h.16v1.98h-.16v-.04c0-.21-.16-.4-.49-.58-.33-.18-.72-.27-1.19-.27h-3.42v5.25c0,.34.09.65.27.93.18.29.39.44.62.47v.04h-2.99v-.08c.21,0,.4-.13.58-.39Z"/>
        <path class="cls-1" d="m21.29,93.58c.13.18.25.28.36.28v.05h-1.71v-.05c.09,0,.16-.03.21-.1s.08-.17.08-.29c0-.14-.02-.26-.05-.37-.12-.44-.28-.9-.47-1.37-.37-.02-.69-.07-.96-.17s-.58-.23-.93-.41c-.39-.19-.73-.34-1.04-.43s-.7-.14-1.17-.14c-.14,0-.37.02-.68.08-.33.88-.61,1.66-.82,2.34-.05.18-.08.33-.08.48,0,.26.08.39.24.39v.05h-1.03v-.05c.23,0,.45-.29.66-.87.37-1.1.63-1.87.79-2.29l.05-.18c.65-1.72,1.42-3.69,2.31-5.92h.87c1.58,4.09,2.61,6.88,3.08,8.37.07.23.17.43.3.62Zm-2.51-2.21c.25.1.53.15.87.17-.6-1.67-1.43-3.87-2.5-6.6-.84,2.09-1.56,3.93-2.16,5.52.16-.05.36-.08.61-.08.49,0,.9.05,1.22.16.33.1.7.25,1.12.45.32.16.6.29.84.38Z"/>
        <path class="cls-1" d="m30.27,93.75v.05c-.12.03-.23.06-.32.06-.09.01-.16.01-.21.01-.38.03-.73-.01-1.04-.14s-.61-.36-.91-.67l-1.55-1.66c-.44-.46-.84-.71-1.21-.76-.28.02-.68.03-1.18.03v2.26c0,.14.02.29.08.43.05.15.12.26.21.33.07.07.15.12.24.16h.05v.05h-2v-.05c.14,0,.27-.09.4-.26.12-.25.18-.54.18-.9v-6.9c0-.3-.03-.51-.08-.63-.12-.35-.29-.53-.5-.53v-.05h2c1.4,0,2.54.22,3.39.66.86.44,1.29,1.18,1.29,2.24,0,.89-.24,1.59-.72,2.09s-1.07.82-1.75.96l-.29.03-.16.02c.38.14.73.38,1.03.71l1.53,1.66c.07.07.19.2.36.38.17.18.32.31.46.37.14.06.29.09.45.09l.26-.05Zm-5.13-3.26c.47-.03.82-.08,1.03-.13l.34-.08c.65-.19,1.11-.51,1.37-.96.26-.45.4-1.05.4-1.8s-.19-1.32-.57-1.75-.86-.71-1.46-.83c-.39-.11-.9-.16-1.53-.16h-.87v5.71c.4.02.83.02,1.29,0Z"/>
        <path class="cls-1" d="m38.6,93.58c.13.18.25.28.36.28v.05h-1.71v-.05c.09,0,.16-.03.21-.1s.08-.17.08-.29c0-.14-.02-.26-.05-.37-.12-.44-.28-.9-.47-1.37-.37-.02-.69-.07-.96-.17s-.58-.23-.93-.41c-.39-.19-.73-.34-1.04-.43s-.7-.14-1.17-.14c-.14,0-.37.02-.68.08-.33.88-.61,1.66-.82,2.34-.05.18-.08.33-.08.48,0,.26.08.39.24.39v.05h-1.03v-.05c.23,0,.45-.29.66-.87.37-1.1.63-1.87.79-2.29l.05-.18c.65-1.72,1.42-3.69,2.31-5.92h.87c1.58,4.09,2.61,6.88,3.08,8.37.07.23.17.43.3.62Zm-2.51-2.21c.25.1.53.15.87.17-.6-1.67-1.43-3.87-2.5-6.6-.84,2.09-1.56,3.93-2.16,5.52.16-.05.36-.08.61-.08.49,0,.9.05,1.22.16.33.1.7.25,1.12.45.32.16.6.29.84.38Z"/>
        <path class="cls-1" d="m47.07,84.59v.05c-.3,0-.45.31-.45.92v8.34h-.21l-6.1-7.92.03,6.95c0,.61.14.92.42.92v.05h-1.1v-.05h.02c.3,0,.45-.3.45-.89l-.03-7.24-.87-1.13h1.11l6.08,7.92v-6.97c0-.6-.14-.9-.42-.9h-.02v-.05h1.1Z"/>
        <path class="cls-1" d="m56.44,89.69v.18h-.05c-.21.02-.35.09-.42.22-.07.13-.11.33-.11.59v2.16l-.47.34c-.3.2-.71.36-1.24.5-.56.14-1.12.21-1.68.21-.67,0-1.29-.1-1.87-.32-.88-.32-1.61-.88-2.18-1.68-.55-.79-.82-1.68-.82-2.66,0-.86.21-1.64.62-2.35s.99-1.27,1.72-1.68c.74-.41,1.57-.62,2.5-.62.68,0,1.29.08,1.83.25.54.17.96.36,1.28.59l.26,1.26h-.1c-.28-.54-.55-.93-.82-1.16-.63-.49-1.43-.74-2.39-.74-1.11,0-2.01.35-2.71,1.05-.58.56-.98,1.27-1.21,2.13-.11.42-.16.84-.16,1.26,0,.58.1,1.15.32,1.71.28.72.7,1.33,1.25,1.82.55.49,1.19.79,1.91.89.28.04.51.05.68.05.49,0,.92-.05,1.29-.16.42-.14.79-.35,1.1-.63l.05-.05v-2.26c0-.19-.07-.36-.21-.5s-.31-.21-.5-.21h-1.08v-.21h3.21Z"/>
        <path class="cls-1" d="m57.72,93.32c.05-.19.08-.4.08-.63v-6.9c0-.24-.03-.45-.08-.63-.12-.35-.29-.53-.5-.53v-.05h2v.05c-.16,0-.29.1-.41.29-.11.19-.17.4-.17.63v7.37c0,.23.06.44.17.63.11.19.25.29.41.29v.05h-2v-.05c.21,0,.38-.17.5-.53Z"/>
        <path class="cls-1" d="m67.33,84.77l-6.05,8.95h3.03c.84,0,1.49-.05,1.95-.14s.78-.3.97-.62h.11l-.18.95h-6.87v-.18l6.03-8.95h-2.79c-.9,0-1.59.05-2.08.15s-.84.3-1.05.62h-.1l.18-.95h6.87v.18Z"/>
      </g>
      <g>
        <path class="cls-1" d="m83.78,106.95c.17-.31.25-.72.25-1.25v-10.19c0-.52-.08-.93-.25-1.24-.17-.31-.37-.47-.6-.47v-.08h9.22l.31,1.44h-.19c-.23-.49-.69-.81-1.38-.96-.69-.14-1.65-.21-2.9-.21h-2.96v6.54h3.77c.47,0,.86-.09,1.19-.27s.49-.36.49-.55h.15v1.98h-.15v-.04c0-.21-.16-.4-.49-.59s-.72-.27-1.19-.27h-3.77v6.42h3.27c1.27,0,2.24-.07,2.92-.22.68-.14,1.16-.45,1.44-.91h.15l-.27,1.4h-9.61v-.08c.23,0,.43-.16.6-.47Z"/>
        <path class="cls-1" d="m94.32,107.17c.09-.16.14-.33.16-.51.02-.18.03-.37.03-.55v-6.72c0-.24-.03-.45-.08-.63-.12-.35-.29-.53-.5-.53v-.05h2v.05c-.16,0-.29.1-.41.29-.11.19-.17.4-.17.63v8.16h2.21c.86,0,1.52-.05,1.97-.14s.78-.3.97-.62h.11l-.18.95h-6.5v-.05c.14,0,.27-.09.4-.26Z"/>
        <path class="cls-1" d="m101.8,107.17c.12-.19.18-.49.18-.9v-6.9c0-.35-.06-.63-.17-.84-.11-.21-.25-.32-.41-.32v-.05h1.42c1.3,0,2.2.05,2.71.16.51.12.94.34,1.3.67.36.32.54.77.54,1.33,0,.68-.22,1.18-.66,1.5s-.78.51-1.01.57c-.24.06-.37.09-.38.09.37,0,.79.07,1.26.21.47.14.88.39,1.23.74.35.35.53.82.53,1.4,0,.75-.25,1.34-.74,1.76-.49.42-1.08.68-1.76.79-.42.07-1.42.1-3,.1h-1.45v-.05c.14,0,.27-.09.4-.26Zm3.61-5.05c.74-.32,1.1-.91,1.1-1.79,0-.46-.09-.82-.26-1.09-.18-.27-.43-.49-.76-.64-.26-.1-.72-.17-1.38-.21-.66-.03-1.08-.03-1.27,0v4.03h.87c.68,0,1.25-.1,1.71-.29Zm.32,5c.65-.16,1.11-.42,1.38-.79.27-.37.41-.86.41-1.48-.02-1.12-.69-1.83-2.03-2.13-.37-.07-.88-.1-1.53-.1h-1.13v4.18c0,.19.06.32.2.38.13.06.31.1.54.12,1,0,1.72-.06,2.16-.18Z"/>
        <path class="cls-1" d="m109.29,107.12c.11-.21.17-.49.17-.84v-6.9c0-.35-.06-.63-.17-.84-.11-.21-.25-.32-.41-.32v-.05h6.24l.21.97h-.13c-.16-.33-.47-.55-.94-.64s-1.12-.15-1.96-.15h-2v4.42h2.55c.32,0,.58-.06.8-.18s.33-.25.33-.37h.1v1.34h-.1v-.03c0-.14-.11-.27-.33-.4-.22-.12-.49-.18-.8-.18h-2.55v4.34h2.21c.86,0,1.52-.05,1.97-.14s.78-.3.97-.62h.11l-.18.95h-6.5v-.05c.16,0,.29-.1.41-.32Z"/>
        <path class="cls-1" d="m116.75,107.17c.14-.23.21-.53.21-.9v-6.9c0-.24-.03-.46-.1-.66-.03-.12-.1-.24-.18-.34-.09-.1-.19-.16-.32-.16v-.05h2.03v.05c-.16,0-.29.1-.41.29-.11.19-.17.4-.17.63v4.05l3.97-4.18c.07-.09.11-.2.11-.32s-.05-.23-.13-.33c-.09-.1-.19-.14-.32-.14v-.05h1.82v.05c-.12,0-.27.04-.44.12-.17.08-.32.19-.46.33l-3.16,3.34c.28,0,.51.03.68.08.37.09.68.26.95.51.26.25.49.61.68,1.06l.97,2.37c.19.45.35.78.46.96.11.18.29.31.51.38.21.03.39.05.53.05v.05h-.16c-.23,0-.45-.02-.66-.05-.37-.09-.68-.25-.95-.5-.26-.25-.49-.6-.68-1.08l-.98-2.39c-.17-.4-.36-.72-.55-.94-.2-.22-.42-.36-.68-.43-.04-.02-.1-.03-.18-.03l-1.34,1.45v3c0,.23.06.44.17.63.11.19.25.29.41.29v.05h-2.03v-.05c.14,0,.27-.09.4-.26Z"/>
      </g>
      <rect class="cls-1" y="100.48" width="76.69" height=".25"/>
      <rect class="cls-1" x="58.93" y="2.68" width="70.75" height=".25"/>
      <path class="cls-4" d="m82.58,81.37c.86-1.59,1.29-3.68,1.29-6.33V23.32c0-2.63-.43-4.74-1.29-6.31-.85-1.59-1.88-2.37-3.05-2.37v-.4h46.78l1.59,7.31h-.99c-1.19-2.51-3.53-4.13-7.02-4.85-3.48-.72-8.39-1.08-14.7-1.08h-15.01v33.17h19.15c2.37,0,4.37-.46,6.02-1.39,1.65-.92,2.48-1.85,2.48-2.77h.79v10.07h-.79v-.18c0-1.06-.83-2.05-2.48-2.97-1.65-.92-3.65-1.39-6.02-1.39h-19.15v32.59h16.58c6.45,0,11.39-.37,14.81-1.09,3.43-.72,5.87-2.26,7.31-4.63h.79l-1.39,7.1h-48.75v-.38c1.17,0,2.2-.8,3.05-2.37Z"/>
      <path class="cls-3" d="m7.18,70.01c1.09-1.77,1.64-4.09,1.64-6.97V9.41c0-2.72-.45-4.9-1.34-6.53S5.46.42,4.1.42v-.42h46.66l1.64,7.57h-1.02c-1.09-2.59-3.44-4.26-7.07-5.01-3.61-.75-8.69-1.12-15.24-1.12h-13.92v34.38h18.02c2.46,0,4.53-.47,6.25-1.42,1.7-.95,2.56-1.92,2.56-2.87h.82v10.45h-.82v-.2c0-1.1-.85-2.12-2.56-3.08-1.72-.95-3.79-1.44-6.25-1.44H15.15v27.63c0,1.79.48,3.43,1.44,4.91.95,1.5,2.04,2.32,3.28,2.46v.22H4.1v-.42c1.09,0,2.11-.69,3.08-2.04Z"/>
    </g>
  </g>
</svg>