<?xml version="1.0" encoding="UTF-8"?>
<svg id="_Слой_2" data-name="Слой 2" xmlns="http://www.w3.org/2000/svg" xmlns:xlink="http://www.w3.org/1999/xlink" viewBox="0 0 31.41 31.41">
  <defs>
    <style>
      .cls-1 {
        fill: url(#_Безымянный_градиент_26);
      }

      .cls-2 {
        fill: url(#_Безымянный_градиент_26-2);
      }
    </style>
    <radialGradient id="_Безымянный_градиент_26" data-name="Безымянный градиент 26" cx="11.01" cy="8.81" fx="11.01" fy="8.81" r="21.35" gradientUnits="userSpaceOnUse">
      <stop offset="0" stop-color="#f8d756"/>
      <stop offset="1" stop-color="#9c6d27"/>
    </radialGradient>
    <radialGradient id="_Безымянный_градиент_26-2" data-name="Безымянный градиент 26" cx="2.78" cy="2.44" fx="2.78" fy="2.44" r="46.83" xlink:href="#_Безымянный_градиент_26"/>
  </defs>
  <g id="_Слой_1-2" data-name="Слой 1">
    <g>
      <path class="cls-1" d="m20.88,8.03c.42.17.53.33.53.79,0,3.17,0,7.48,0,10.65,0,.99-.42,1.77-1.28,2.28-1.53.93-3.6-.07-3.83-1.85-.18-1.38.7-2.62,2.05-2.89.56-.11,1.09-.03,1.61.21.05.02.1.05.16.08v-5.35c-2.55.36-5.1.73-7.67,1.09,0,.06,0,.12,0,.18,0,2.12,0,5.39,0,7.52,0,.9-.36,1.62-1.08,2.15-1.4,1.03-3.49.3-3.95-1.38-.5-1.82.96-3.49,2.82-3.25.25.03.49.14.74.22.06.02.11.05.19.09v-.18c0-2.4,0-5.95,0-8.35,0-.47.19-.7.66-.76,1.91-.27,3.82-.55,5.73-.82,1-.14,1.99-.28,2.99-.42.03,0,.05-.02.08-.02.08,0,.17,0,.25,0Z"/>
      <path class="cls-2" d="m15.71,31.41C7.05,31.41,0,24.37,0,15.71S7.05,0,15.71,0s15.71,7.05,15.71,15.71-7.05,15.71-15.71,15.71ZM15.71.4C7.27.4.4,7.27.4,15.71s6.87,15.3,15.3,15.3,15.3-6.87,15.3-15.3S24.15.4,15.71.4Z"/>
    </g>
  </g>
</svg>