<?xml version="1.0" encoding="UTF-8"?>
<svg id="_Слой_2" data-name="Слой 2" xmlns="http://www.w3.org/2000/svg" xmlns:xlink="http://www.w3.org/1999/xlink" viewBox="0 0 264.72 156.79">
  <defs>
    <style>
      .cls-1 {
        fill: url(#_Безымянный_градиент_2);
      }
    </style>
    <linearGradient id="_Безымянный_градиент_2" data-name="Безымянный градиент 2" x1="137.67" y1="171.63" x2="131.47" y2="-28.89" gradientUnits="userSpaceOnUse">
      <stop offset="0" stop-color="#f8d756"/>
      <stop offset="1" stop-color="#9c6d27"/>
    </linearGradient>
  </defs>
  <g id="_Слой_1-2" data-name="Слой 1">
    <path class="cls-1" d="m263.57,0l-4.79,13.1V0h-.88v15.52l-30.04,82.1-72.59,44.22h-45.34l-73.08-44.52-13.17-35.9,4.57,3.83c.32,1.21,2.58,8.45,12.33,13.3l.79.39-.1-.88c-.04-.35-1.09-8.74-8.55-12.85l-7.3-4.02-2.41-1.6-11.13-30.34,4.65,4.69c.32,1.22,2.85,9.75,12.43,14.36l.85.41-.17-.92c-.02-.11-2.08-10.93-11.44-14.23l-6.15-5.49-.44.46-4.31-11.74v-8.69l2.08,1.53c.08.59.48,3.86.48,5.54h.09c-.81.09-1.45.77-1.45,1.61,0,.9.73,1.62,1.62,1.62s1.62-.73,1.62-1.62c0-.84-.63-1.52-1.45-1.61h.04c0-1.25-.21-3.29-.36-4.56.87,1.55,2.87,5.25,3.32,7.23l.13-.03c-.66.21-1.14.82-1.14,1.54,0,.9.73,1.62,1.62,1.62s1.62-.73,1.62-1.62-.73-1.62-1.62-1.62c-.08,0-.15.01-.22.02l.07-.02c-.47-2.06-2.48-5.77-3.36-7.35l4.35,3.2.07-.09c-.16.25-.25.54-.25.86,0,.9.73,1.62,1.62,1.62s1.62-.73,1.62-1.62-.73-1.62-1.62-1.62c-.51,0-.95.24-1.25.6l.1-.13-7.74-5.7v-.61h4.13c.12.78.79,1.38,1.6,1.38.9,0,1.62-.73,1.62-1.62s-.73-1.62-1.62-1.62c-.81,0-1.48.6-1.6,1.38h-4.13V0h-.88v6.41h-.6l-3.18-2.34L1.15,0H0l6.42,17.46v62.45l29.61,18.04,16.42,44.63.14.26h57.11l22.68,13.82.22.14,22.9-13.95h56.77l16.34-44.54,29.94-18.24.23-.14V16.06l5.8-15.82.14-.24h-1.15ZM29.87,66.84c2.45,2.78,5.8,6.54,8.52,9.37-5.09-3.23-7.48-7.09-8.52-9.37Zm2.38-.79c5.34,2.94,7.22,8.38,7.81,10.84-3.31-3.33-8.17-8.83-10.9-11.96,0-.02-.01-.05-.01-.06l-.04-.16-.51-.43c-.15-.17-.29-.33-.42-.48l4.07,2.24Zm-3.82-19.19c-3.08-3.01-8.03-9.42-10.17-12.25,6.82,2.62,9.41,9.55,10.17,12.25Zm-1.35-.7c-5.85-3.68-8.35-8.92-9.24-11.31,1.91,2.52,6.11,7.99,9.24,11.31ZM2.94,4.89l2.07,1.52h-1.51l-.56-1.52Zm3.48,9.49l-2.75-7.48h1.99l.75.55v6.93Zm11.65,46.72c.81,2.89,1.98,9.57-1.88,15.72,1.24-5.1,1.7-11.77,1.88-15.72Zm-2.7,16.03c-.33-2.61-.73-7.65.28-12.58.1-.49.31-.87.58-1.36.35-.63.76-1.39,1.14-2.63-.16,3.96-.63,11.27-2,16.58Zm-8.07,2.19V19.86l10.25,27.85v2.6c-.12,8.71-1.38,10.99-2.16,12.41-.29.54-.55,1-.68,1.63-1.49,7.25-.06,14.49,0,14.8l.2.98.64-.77c7.1-8.53,3.38-18.92,2.96-20.02v-8.96s0-.04,0-.06l16.99,46.17-28.19-17.17Zm45.88,62.51l-15.8-43.06,70.68,43.06h-54.88Zm79.42,13.81l-21.03-12.81h42.05l-21.03,12.81Zm79.08-13.81h-54.54l70.18-42.76-15.64,42.76Zm46.21-62.51l-28.75,17.51,28.75-78.36v60.85Z"/>
  </g>
</svg>