<?xml version="1.0" encoding="UTF-8"?>
<svg id="_Слой_2" data-name="Слой 2" xmlns="http://www.w3.org/2000/svg" xmlns:xlink="http://www.w3.org/1999/xlink" viewBox="0 0 56.94 11.64">
  <defs>
    <style>
      .cls-1 {
        fill: url(#_Безымянный_градиент_2-9);
      }

      .cls-2 {
        fill: url(#_Безымянный_градиент_2);
      }

      .cls-3 {
        fill: url(#_Безымянный_градиент_2-5);
      }

      .cls-4 {
        fill: url(#_Безымянный_градиент_2-7);
      }

      .cls-5 {
        fill: url(#_Безымянный_градиент_2-3);
      }

      .cls-6 {
        fill: url(#_Безымянный_градиент_2-4);
      }

      .cls-7 {
        fill: url(#_Безымянный_градиент_2-2);
      }

      .cls-8 {
        fill: url(#_Безымянный_градиент_2-8);
      }

      .cls-9 {
        fill: url(#_Безымянный_градиент_2-6);
      }
    </style>
    <linearGradient id="_Безымянный_градиент_2" data-name="Безымянный градиент 2" x1="-6.28" y1="6.52" x2="81.69" y2="2.27" gradientUnits="userSpaceOnUse">
      <stop offset="0" stop-color="#f8d756"/>
      <stop offset="1" stop-color="#9c6d27"/>
    </linearGradient>
    <linearGradient id="_Безымянный_градиент_2-2" data-name="Безымянный градиент 2" x1="-6.08" y1="10.66" x2="81.89" y2="6.41" xlink:href="#_Безымянный_градиент_2"/>
    <linearGradient id="_Безымянный_градиент_2-3" data-name="Безымянный градиент 2" x1="-6.07" y1="10.91" x2="81.9" y2="6.66" xlink:href="#_Безымянный_градиент_2"/>
    <linearGradient id="_Безымянный_градиент_2-4" data-name="Безымянный градиент 2" x1="-6.06" y1="11.18" x2="81.91" y2="6.93" xlink:href="#_Безымянный_градиент_2"/>
    <linearGradient id="_Безымянный_градиент_2-5" data-name="Безымянный градиент 2" x1="-6.2" y1="8.3" x2="81.77" y2="4.04" xlink:href="#_Безымянный_градиент_2"/>
    <linearGradient id="_Безымянный_градиент_2-6" data-name="Безымянный градиент 2" x1="-6.04" y1="11.58" x2="81.93" y2="7.33" xlink:href="#_Безымянный_градиент_2"/>
    <linearGradient id="_Безымянный_градиент_2-7" data-name="Безымянный градиент 2" x1="-6.01" y1="12.08" x2="81.95" y2="7.82" xlink:href="#_Безымянный_градиент_2"/>
    <linearGradient id="_Безымянный_градиент_2-8" data-name="Безымянный градиент 2" x1="-6.01" y1="12.22" x2="81.96" y2="7.97" xlink:href="#_Безымянный_градиент_2"/>
    <linearGradient id="_Безымянный_градиент_2-9" data-name="Безымянный градиент 2" x1="-5.99" y1="12.53" x2="81.98" y2="8.28" xlink:href="#_Безымянный_градиент_2"/>
  </defs>
  <g id="_Слой_1-2" data-name="Слой 1">
    <g>
      <path class="cls-2" d="m4.33,6.49c.06-.66.29-1.3.69-1.91s.82-1.1,1.27-1.45c.24-.19.49-.36.73-.51s.49-.26.73-.34c.27-.08.5-.12.71-.12.3,0,.55.08.74.25.2.19.3.46.3.81,0,.11,0,.23-.03.36-.07.35-.21.73-.42,1.14-.25.45-.56.88-.94,1.29s-.8.77-1.24,1.07-.9.55-1.37.73-.92.27-1.33.27c-.37,0-.7-.09-1-.26-.23-.14-.43-.32-.59-.55-.24-.33-.36-.73-.36-1.2,0-.12,0-.25.02-.39.07-.58.27-1.17.62-1.76.49-.84,1.16-1.56,2-2.19.68-.5,1.46-.92,2.31-1.24.49-.18,1-.32,1.54-.42.33-.06.67-.09,1.02-.09.2,0,.41,0,.62.03,1.52.15,2.57.8,3.13,1.97.35-.26.68-.47.99-.63s.69-.29,1.14-.38c.18-.04.35-.06.52-.09.08,0,.16-.01.26-.01.09,0,.19,0,.3.01.04,0,.06.05.06.12v.02c0,.09-.03.13-.07.13-.21.01-.39.02-.54.02s-.3.02-.47.05c-.45.09-.82.22-1.11.38s-.62.36-.96.62c.08.2.15.43.22.69.07.32.11.67.11,1.03,0,.53-.08,1.1-.25,1.72-.21.8-.55,1.54-.99,2.22s-.97,1.29-1.58,1.81c-.61.53-1.3.98-2.06,1.36s-1.49.57-2.21.57c-.32,0-.65-.03-.99-.1s-.67-.14-1-.22c-.37.08-.74.14-1.12.18s-.76.07-1.14.09c-.22,0-.43.01-.62.01-.43,0-.79-.02-1.07-.07-.31-.05-.54-.12-.69-.19-.14-.07-.21-.19-.21-.36v-.04c.01-.35.35-.54,1-.57h.16c.28,0,.6.02.95.07.42.06.85.14,1.29.23.23.06.49.12.75.19s.54.14.82.21c.44-.1.84-.25,1.2-.45s.71-.45,1.05-.74c.18-.15.33-.32.48-.49s.28-.34.41-.51c.7-.88,1.32-1.81,1.86-2.79s1.2-1.89,1.99-2.74c.42-.45.85-.84,1.28-1.17,0,0,0,0,.02-.01s.02-.01.02-.02c-.51-1.11-1.49-1.73-2.94-1.87-.2-.02-.39-.03-.59-.03-.83,0-1.66.16-2.49.49-.81.32-1.55.77-2.24,1.35-.86.73-1.51,1.57-1.97,2.52-.17.34-.3.68-.41,1.01-.06.18-.09.37-.09.56,0,.16.02.34.06.52.07.32.23.58.48.79s.59.33,1.05.34h.08c.41,0,.83-.09,1.27-.26.47-.18.86-.38,1.17-.59.63-.42,1.2-.95,1.7-1.58s.8-1.25.9-1.84c.02-.12.03-.23.03-.34,0-.3-.09-.53-.26-.67-.12-.1-.29-.15-.48-.15h-.05c-.22,0-.45.05-.7.13-.22.07-.45.18-.67.32s-.45.3-.67.48c-.44.34-.82.79-1.15,1.37s-.56,1.16-.69,1.76c-.03.12-.08.18-.17.19h-.01c-.07,0-.1-.04-.1-.12v-.04Zm.03,4.7c-.18-.05-.35-.09-.52-.14s-.34-.08-.5-.12c-.43-.09-.85-.17-1.25-.23-.34-.05-.64-.07-.9-.08-.05,0-.1,0-.15,0-.21.01-.4.04-.54.07-.14.04-.22.12-.22.23H.28c0,.14.06.22.19.26s.29.07.5.11c.23.05.49.07.8.08.13,0,.26,0,.39,0,.17,0,.34,0,.5-.01.56-.02,1.13-.08,1.69-.18Zm1.04-.02c.57.13,1.06.2,1.45.2.68,0,1.38-.19,2.12-.56s1.39-.81,1.97-1.32,1.09-1.09,1.53-1.75.75-1.38.96-2.14c.16-.59.24-1.15.24-1.66,0-.34-.04-.65-.11-.96-.05-.2-.11-.4-.18-.58-.22.17-.44.34-.64.52s-.4.38-.58.6c-.36.43-.65.86-.88,1.28s-.47.85-.74,1.27c-.33.53-.65,1.04-.95,1.54s-.65.99-1.03,1.48c-.22.28-.48.54-.79.79s-.63.46-.97.65c-.49.28-.96.48-1.42.62Z"/>
      <path class="cls-7" d="m13.16,9.74c.24-.2.52-.42.84-.67s.6-.46.86-.64c.07-.05.15-.09.23-.13.28-.21.57-.36.88-.46.11-.04.25-.06.42-.08.04,0,.09,0,.13,0,.11,0,.21.02.3.05.18.07.26.23.26.47,0,.1-.01.21-.04.33-.04.14-.05.23-.05.28h0c0,.06-.06.24-.19.54-.04.08-.1.18-.19.29s-.15.21-.17.29c-.03.09-.05.15-.05.2,0,.06.02.09.07.09.01,0,.03,0,.05,0,.12-.03.25-.1.36-.21.05-.05.09-.1.11-.15s.04-.1.06-.13c.04-.05.09-.08.14-.08h.02c.07.01.1.02.1.04v.05c0,.21-.15.38-.45.51-.15.07-.29.1-.41.1-.14,0-.25-.04-.35-.13-.32.37-.65.66-1,.89s-.65.34-.9.34c-.38,0-.57-.26-.57-.78v-.04c0-.43.15-.87.46-1.34,0-.01.01-.03.03-.05-.07.06-.14.12-.22.17s-.15.11-.21.15c-.07.06-.14.12-.2.18s-.13.12-.2.17c-.03.02-.05.04-.08.04-.04,0-.06-.02-.09-.07-.02-.03-.03-.06-.03-.09,0-.04.02-.08.06-.11Zm3.43-1.76c-.18,0-.4.08-.67.25s-.53.37-.79.62c-.3.29-.54.58-.73.87-.29.45-.47.83-.53,1.14,0,.05-.01.1-.01.14,0,.22.13.33.38.33s.53-.11.86-.33.63-.49.91-.83c.04-.05.06-.1.06-.15,0-.03,0-.05-.02-.08,0-.01,0-.03,0-.04,0-.1.1-.31.29-.62.2-.33.33-.5.39-.5,0,0,.01,0,.02,0,.01,0,.02.01.04.01.04,0,.07-.06.1-.18.03-.11.04-.21.04-.29,0-.23-.11-.35-.33-.35Z"/>
      <path class="cls-5" d="m23.47,7.89c-.16,0-.35.09-.57.26s-.42.36-.63.55c-.25.24-.5.49-.74.76s-.41.52-.52.77c-.07.15-.11.28-.11.4,0,.08.02.16.05.22.07.17.23.25.48.25s.43-.03.59-.09.32-.15.49-.25c.25-.16.46-.32.66-.5s.34-.32.45-.45c.07-.08.15-.12.22-.12.02,0,.04,0,.06.01.05.02.07.05.07.09,0,.04-.02.09-.06.15-.11.16-.33.36-.64.6s-.64.45-.99.62c-.24.11-.51.19-.8.23-.06,0-.12.01-.18.01-.21,0-.39-.06-.53-.18-.15-.13-.22-.33-.22-.59v-.02c0-.19.05-.41.16-.66.11-.25.24-.5.39-.74.02-.03-.01,0-.09.06s-.17.15-.25.22c-.07.06-.15.12-.23.18s-.15.11-.22.16c-.03.02-.05.04-.08.04-.04,0-.06-.02-.09-.07-.02-.03-.02-.06-.02-.09,0-.04.02-.08.05-.11.25-.2.53-.42.84-.67s.6-.46.86-.64c.21-.14.43-.27.67-.39s.48-.2.74-.25c.06,0,.12-.01.18-.01.24,0,.41.09.49.27.04.09.06.21.06.35,0,.03,0,.06,0,.1-.04.34-.17.55-.39.63-.04.02-.07.04-.11.04-.06,0-.11-.03-.16-.08-.09-.09-.13-.18-.13-.27,0-.22.1-.33.31-.33.01,0,.02,0,.03,0s.02,0,.03,0c0-.04.03-.07.06-.11s.05-.07.05-.11v-.04c0-.14-.07-.21-.22-.21Z"/>
      <path class="cls-6" d="m23.84,9.74c.24-.2.52-.42.84-.67s.6-.46.86-.64c.07-.05.15-.09.23-.13.28-.21.57-.36.88-.46.11-.04.25-.06.42-.08.04,0,.09,0,.13,0,.11,0,.21.02.3.05.18.07.26.23.26.47,0,.1-.01.21-.04.33-.04.14-.05.23-.05.28h0c0,.06-.06.24-.19.54-.04.08-.1.18-.19.29s-.15.21-.17.29c-.03.09-.05.15-.05.2,0,.06.02.09.07.09.01,0,.03,0,.05,0,.12-.03.25-.1.36-.21.05-.05.09-.1.11-.15s.04-.1.06-.13c.04-.05.09-.08.14-.08h.02c.07.01.1.02.1.04v.05c0,.21-.15.38-.45.51-.15.07-.29.1-.41.1-.14,0-.25-.04-.35-.13-.32.37-.65.66-1,.89s-.65.34-.9.34c-.38,0-.57-.26-.57-.78v-.04c0-.43.15-.87.46-1.34,0-.01.01-.03.03-.05-.07.06-.14.12-.22.17s-.15.11-.21.15c-.07.06-.14.12-.2.18s-.13.12-.2.17c-.03.02-.05.04-.08.04-.04,0-.06-.02-.09-.07-.02-.03-.03-.06-.03-.09,0-.04.02-.08.06-.11Zm3.43-1.76c-.18,0-.4.08-.67.25s-.53.37-.79.62c-.3.29-.54.58-.73.87-.29.45-.47.83-.53,1.14,0,.05-.01.1-.01.14,0,.22.13.33.38.33s.53-.11.86-.33.63-.49.91-.83c.04-.05.06-.1.06-.15,0-.03,0-.05-.02-.08,0-.01,0-.03,0-.04,0-.1.1-.31.29-.62.2-.33.33-.5.39-.5,0,0,.01,0,.02,0,.01,0,.02.01.04.01.04,0,.07-.06.1-.18.03-.11.04-.21.04-.29,0-.23-.11-.35-.33-.35Z"/>
      <path class="cls-3" d="m30.84,10.37c.35-.09.79-.3,1.33-.63.07.02.13.05.16.08s-.05.11-.23.23-.45.24-.77.38c-.2.09-.42.15-.68.2-.06.03-.13.07-.2.13s-.16.11-.24.17c-.41.3-.81.45-1.2.45-.18,0-.34-.07-.49-.21s-.23-.33-.23-.57c0-.2.06-.42.18-.66s.26-.49.42-.73c0,0,.01-.02.03-.05-.07.06-.13.12-.19.18s-.12.11-.18.16c-.07.07-.15.13-.23.18s-.15.11-.22.16c-.04.02-.06.04-.09.04-.04,0-.06-.02-.08-.07-.02-.03-.03-.06-.03-.09,0-.04.02-.07.05-.11.25-.2.53-.42.84-.67s.61-.46.87-.64c.15-.11.33-.2.53-.29s.39-.16.57-.22c.11-.04.25-.06.42-.09.06,0,.12-.01.18-.01.1,0,.19.01.26.04.23.08.38.26.42.56.08-.29.13-.59.13-.9,0-.3.02-.63.04-.99.04-.52.09-1.01.16-1.47s.23-.85.46-1.17c.53-.73,1.27-1.17,2.21-1.34.5-.09.96-.19,1.38-.32s.7-.33.81-.59c.02-.04.04-.06.07-.06.02,0,.05.01.08.04.05.04.07.08.07.12,0,.02,0,.04-.01.06-.21.5-.53.8-.95.9s-.85.2-1.28.3c-.42.11-.83.23-1.23.37s-.71.36-.94.68c-.21.29-.35.66-.42,1.1s-.11.91-.15,1.41c-.04.46-.07.89-.11,1.31s-.2.85-.48,1.3c-.18.43-.41.77-.68,1-.04.03-.07.07-.11.11s-.13.13-.27.27Zm.51-2.49c-.27,0-.63.18-1.06.54s-.8.76-1.09,1.21-.46.82-.52,1.1c0,.04-.01.08-.01.12,0,.21.13.32.39.32.2,0,.49-.11.86-.34s.71-.5,1.03-.82c.26-.27.46-.55.61-.84s.23-.52.23-.7c0-.39-.15-.59-.43-.59Z"/>
      <path class="cls-9" d="m38.09,7.97c-.12.15-.31.37-.57.64s-.54.57-.83.88c-.32.34-.6.65-.84.94-.16.19-.24.34-.24.47,0,.07.03.13.08.18.04.05.1.08.18.08.12,0,.27-.06.46-.18.28-.16.57-.39.88-.67s.51-.47.6-.56c.09-.09.15-.13.19-.13h.01c.08.03.12.07.12.12,0,.04-.03.09-.08.15-.14.15-.38.38-.71.67s-.65.52-.98.69c-.23.11-.42.16-.58.16-.11,0-.2-.03-.28-.08-.14-.09-.21-.23-.21-.41,0-.14.02-.29.07-.44.07-.23.19-.46.37-.69s.35-.43.52-.62c.12-.13.25-.26.37-.39s.26-.26.4-.4c-.28.16-.6.35-.95.57s-.64.43-.86.64c0,.04.01.07.01.09,0,.19-.08.32-.23.38-.02.03-.03.06-.05.09s-.04.06-.05.09c-.27.39-.59.69-.97.9-.2.11-.42.2-.66.26-.12.03-.24.05-.35.05s-.22-.02-.32-.05c-.27-.09-.4-.29-.4-.62,0-.24.1-.49.31-.75s.42-.51.65-.76c.08-.09.15-.17.23-.25s.15-.17.22-.25c-.15.12-.31.25-.48.39s-.33.27-.5.4c-.1.08-.25.19-.45.33-.03.03-.06.04-.08.04-.03,0-.06-.03-.08-.08-.02-.03-.02-.05-.02-.08,0-.04.02-.08.05-.11.35-.29.74-.59,1.17-.92s.74-.56.93-.69c.05-.04.11-.07.19-.11,0-.01.02-.03.04-.04.07-.07.14-.11.2-.11.03,0,.05,0,.08.02.13.08.2.12.2.12.02.03.04.06.04.09,0,.02,0,.04-.02.06-.09.12-.24.28-.43.49s-.4.43-.63.67c.25-.09.47-.13.66-.13.24,0,.43.07.55.22.07.04.12.09.16.15.29-.23.68-.5,1.16-.79s.84-.52,1.06-.65c.04-.04.07-.07.11-.11s.07-.07.11-.11c.07-.07.14-.11.21-.11.03,0,.05,0,.08.02.03.02.07.04.1.06s.07.04.09.06.04.06.04.08c0,.02,0,.04-.02.06Zm-3.48,1.95c-.05-.06-.07-.14-.07-.24,0-.12.04-.23.12-.3-.04-.1-.12-.15-.24-.15-.41,0-.75.15-1.02.44-.32.34-.57.63-.75.88-.11.15-.16.28-.16.39,0,.08.03.15.08.21.04.05.11.07.21.07.05,0,.1,0,.16-.02.18-.03.34-.09.48-.17.12-.07.23-.14.35-.22s.23-.17.36-.28c.2-.17.36-.37.48-.61Z"/>
      <path class="cls-4" d="m45.47,8.2s-.11-.07-.18-.07c-.12,0-.28.06-.46.17-.21.13-.47.32-.77.59-.41.36-.83.71-1.27,1.06s-.87.69-1.29,1.03c-.1.08-.21.17-.32.25s-.21.17-.29.26c-.07.07-.14.11-.2.11-.03,0-.05,0-.08-.02-.13-.07-.2-.12-.2-.12-.02-.03-.04-.05-.04-.08,0-.02,0-.04.02-.06.12-.15.31-.37.57-.64s.54-.57.83-.88c.31-.33.59-.65.84-.94.16-.19.23-.34.23-.47,0-.07-.02-.13-.07-.18-.04-.04-.1-.06-.18-.06-.12,0-.27.05-.46.16-.48.29-.96.65-1.44,1.08s-.91.85-1.3,1.25c-.14.14-.28.27-.42.41s-.29.29-.43.44c-.07.07-.14.11-.21.11-.03,0-.05,0-.08-.02-.13-.08-.2-.13-.21-.14s-.02-.03-.02-.06c0-.02,0-.04.02-.06.12-.15.31-.37.57-.64s.54-.57.83-.88c.31-.33.59-.65.84-.94.16-.19.23-.34.23-.47,0-.07-.02-.13-.07-.18-.04-.04-.1-.06-.18-.06-.12,0-.27.05-.46.16-.29.17-.63.43-1.02.78s-.64.57-.73.66c-.09.09-.15.13-.19.13h-.01c-.07-.03-.11-.07-.11-.12,0-.04.03-.09.08-.15.14-.15.41-.4.83-.77s.79-.63,1.12-.79c.22-.11.41-.17.57-.17.11,0,.21.03.29.09.13.09.2.22.21.4v.04c0,.12-.02.26-.07.4s-.11.29-.2.43c.18-.17.4-.38.69-.62s.56-.43.84-.57c.22-.11.41-.17.57-.17.11,0,.21.03.29.09.13.09.2.22.21.4v.02c0,.12-.02.26-.07.42-.07.2-.17.4-.3.59s-.28.38-.43.54c.33-.28.64-.55.95-.81s.5-.42.6-.5c.31-.27.6-.46.86-.59.22-.11.41-.17.57-.17.11,0,.21.03.29.09.13.09.2.22.21.4v.04c0,.17-.02.3-.07.4-.11.23-.28.46-.49.66s-.4.4-.57.59c-.19.21-.31.34-.34.39s-.16.17-.35.38c-.07.07-.11.15-.11.22,0,.08.03.16.11.23.03.03.07.05.12.05.09,0,.21-.04.36-.13.22-.13.48-.33.77-.58.06-.05.19-.17.39-.33s.42-.36.67-.57c.05-.04.1-.06.14-.06.03,0,.06.01.09.04.02.03.04.06.04.09,0,.04-.02.09-.06.13-.26.22-.49.42-.71.6s-.35.29-.42.35c-.33.27-.62.47-.87.59-.23.11-.42.16-.58.16-.11,0-.2-.03-.28-.08-.13-.09-.2-.22-.21-.4v-.06c0-.13.02-.26.06-.38.09-.23.23-.44.43-.62s.38-.37.56-.56c.16-.18.3-.33.41-.44s.25-.25.41-.41c.04-.04.08-.11.12-.22.02-.05.03-.1.03-.13,0-.04-.01-.08-.04-.11Z"/>
      <path class="cls-8" d="m51.64,7.99c-.12.15-.31.37-.57.64s-.54.57-.83.88c-.31.34-.59.65-.83.94-.16.19-.24.35-.24.47,0,.07.02.12.07.18.04.05.1.07.18.07.12,0,.27-.06.47-.17.28-.16.57-.39.88-.67s.5-.47.6-.56c.1-.08.16-.12.2-.12h.01c.08.03.12.06.12.11,0,.04-.03.09-.09.15-.14.15-.38.38-.7.67s-.66.52-.98.69c-.22.11-.41.16-.57.16-.11,0-.21-.03-.29-.08-.14-.09-.21-.22-.21-.41v-.05c0-.12.02-.25.07-.38.05-.2.16-.4.32-.63-.48.41-.79.67-.94.8-.31.26-.6.46-.87.59-.22.11-.41.16-.57.16-.11,0-.2-.03-.28-.08-.13-.09-.2-.22-.21-.41v-.04c0-.13.02-.27.06-.4.07-.23.2-.46.37-.69s.35-.43.52-.62c.03-.03.06-.06.08-.09s.06-.06.09-.1c-.1.08-.2.16-.3.24s-.2.16-.3.25-.24.21-.43.37c-.03.02-.05.04-.08.04-.04,0-.06-.02-.09-.07-.02-.03-.02-.06-.02-.09,0-.04.02-.07.05-.11.35-.29.74-.6,1.17-.95s.74-.58.93-.72c.05-.04.11-.07.19-.11,0-.01.02-.03.04-.04.07-.07.14-.11.21-.11.03,0,.05,0,.08.02.03.02.07.04.1.06s.07.03.09.06c.03.04.04.07.04.09,0,.02,0,.04-.02.05-.12.15-.31.37-.57.64s-.54.57-.83.88c-.31.34-.59.65-.84.94-.16.19-.24.34-.24.47,0,.07.03.13.08.18.04.05.1.08.18.08.12,0,.27-.06.47-.18.21-.13.47-.32.77-.58.13-.11.5-.43,1.12-.95s1.08-.91,1.39-1.17c.15-.15.31-.31.47-.49.07-.07.14-.11.21-.11.03,0,.05,0,.08.02.03.02.07.04.11.06s.07.04.09.06.04.06.04.08c0,.02,0,.04-.02.06Z"/>
      <path class="cls-1" d="m56.88,8.04c-.12.15-.31.37-.57.64s-.54.57-.83.88c-.31.34-.59.65-.84.94-.16.19-.24.34-.24.47,0,.07.03.13.08.18.04.05.1.07.18.07.12,0,.27-.06.47-.17.28-.16.57-.39.88-.67s.5-.47.6-.56c.1-.08.16-.12.2-.12h.01c.08.03.12.06.12.11,0,.04-.03.09-.09.15-.14.15-.38.38-.7.67s-.66.52-.98.69c-.22.11-.41.16-.57.16-.11,0-.21-.03-.29-.08-.14-.09-.21-.22-.21-.41v-.06c0-.11.02-.24.06-.38.06-.2.19-.44.38-.7-.2.02-.43.06-.67.15-.15.06-.3.16-.45.31s-.29.29-.43.42c-.07.07-.18.17-.32.3s-.29.24-.47.33c-.16.08-.32.12-.49.14h-.06c-.14,0-.25-.05-.33-.15s-.12-.22-.12-.36c0-.02,0-.05,0-.08.02-.17.07-.32.16-.43.11-.15.22-.22.32-.22.07,0,.13.03.2.09.04.04.05.08.05.15,0,.12-.07.29-.2.52-.02.02-.02.03-.02.05,0,.03.02.06.06.11.03.03.06.05.11.05.06,0,.13-.03.21-.09.16-.12.32-.25.47-.4s.38-.35.7-.59c.19-.15.35-.25.49-.3-.38-.13-.57-.34-.57-.62,0-.04,0-.08.01-.12.04-.3.22-.59.55-.87.1-.08.29-.2.58-.35.23-.12.48-.18.76-.18.07,0,.13,0,.2.01.45.05.75.17.91.35l.09-.09.1-.1c.07-.07.14-.11.2-.11.03,0,.05,0,.08.02.03.02.07.04.11.06s.07.04.09.06.04.06.04.08c0,.02,0,.04-.02.06Zm-1.83,1.2c.14-.15.29-.3.43-.46s.3-.31.47-.47c-.06-.06-.13-.12-.2-.19s-.17-.13-.27-.18c-.09-.03-.18-.05-.29-.05-.06,0-.13,0-.2.02-.19.04-.4.15-.63.36-.38.32-.61.6-.68.82-.03.1-.05.19-.05.26,0,.09.03.16.08.21.08.08.16.12.25.12h.02c.06,0,.13,0,.2-.02s.14-.03.21-.04c.24-.02.46-.15.66-.37Z"/>
    </g>
  </g>
</svg>